<svg version="1.1" xmlns="http://www.w3.org/2000/svg" focusable="false" aria-hidden="true" viewBox="0 0 30 30" shape-rendering="geometricPrecision" class="css-1ad1prv"><path d="M3.24,-0.001C4.74,-0.001 5.79,0.749 6.84,1.349C7.74,1.799 8.64,2.399 9.69,2.849C14.491,5.399 19.291,8.099 24.092,10.8C25.592,11.55 27.542,12.3 28.592,13.65C28.892,14.1 29.342,14.7 29.192,15.45C28.742,17.1 26.642,17.7 25.292,18.45C21.991,20.25 18.541,22.201 15.241,24.001C14.041,24.751 12.241,26.101 10.74,25.051C10.14,24.751 9.84,24.451 9.69,24.001C9.54,23.401 9.69,22.651 9.69,22.051L9.69,17.25C9.69,15.9 9.54,14.85 10.44,14.25C10.74,14.1 11.34,13.95 11.791,14.1C13.291,14.7 12.841,17.4 12.841,19.5L12.841,21.151C15.391,19.8 17.941,18.45 20.491,17.25C21.391,16.8 22.892,16.35 23.192,15.15C23.492,13.8 20.641,12.75 19.741,12.3L9.39,6.449C8.64,5.999 6.69,4.499 5.49,4.949C5.04,5.099 4.74,5.549 4.74,5.849C4.59,6.449 4.59,7.349 4.59,8.099L4.59,21.001C4.59,22.201 4.44,23.701 4.89,24.451C5.94,25.951 8.34,23.251 9.09,25.651C9.24,26.251 8.94,26.851 8.64,27.151C8.04,28.051 5.34,29.401 4.29,29.701C3.99,29.851 3.24,30.001 2.79,30.001C0.239,29.551 0.84,25.501 0.84,22.501L0.84,7.649C0.84,5.399 0.539,2.399 1.44,1.049C1.89,0.299 2.34,0.299 3.24,-0.001ZM11.04,9.75C13.291,9.75 13.441,12.6 11.34,13.05C10.14,13.2 9.24,12 9.54,10.95C9.84,10.2 10.29,10.05 11.04,9.75Z" style="fill:rgb(0,174,205);fill-rule:nonzero"></path></svg>