<?xml version="1.0" encoding="utf-8"?>
<!DOCTYPE svg PUBLIC "-//W3C//DTD SVG 1.1//EN" "http://www.w3.org/Graphics/SVG/1.1/DTD/svg11.dtd">
<svg version="1.1" xmlns="http://www.w3.org/2000/svg" xmlns:xlink="http://www.w3.org/1999/xlink" x="0px" y="0px" viewBox="0 0 1000 1000" enable-background="new 0 0 1000 1000" xml:space="preserve">
<g>
	<path fill="#2B2301" d="M826.7,10H173.3C83.1,10,10,83.1,10,173.3v653.3C10,916.9,83.1,990,173.3,990h653.4c90.2,0,163.3-73.1,163.3-163.3V173.3C990,83.1,916.9,10,826.7,10L826.7,10z M867.5,630.2c0,131.1-106.7,237.3-238.7,237.3H371.5c-131.9,0-239-106.2-239-237.3V369.8c0.1-131.1,107.1-237.3,239-237.3H492c132,0,237.7,98.6,237.7,229.7c1.7,24.6,23.9,45.9,49.1,45.9H820c26.4,0,47.5,27.7,47.5,53.9V630.2L867.5,630.2z M683.8,622.5c0,33.7-27.6,61.3-61.3,61.3h-245c-33.7,0-61.3-27.6-61.3-61.3l0,0c0-33.7,27.6-61.3,61.3-61.3h245C656.2,561.3,683.8,588.8,683.8,622.5L683.8,622.5z M561.3,377.5c0,33.7-27.6,61.3-61.3,61.3H377.5c-33.7,0-61.3-27.6-61.3-61.3l0,0c0-33.7,27.6-61.3,61.3-61.3H500C533.7,316.3,561.3,343.8,561.3,377.5L561.3,377.5z"/></g>
</svg>