<?xml version="1.0" encoding="utf-8"?>
<!-- Generated by IcoMoon.io -->
<!DOCTYPE svg PUBLIC "-//W3C//DTD SVG 1.1//EN" "http://www.w3.org/Graphics/SVG/1.1/DTD/svg11.dtd">
<svg version="1.1" xmlns="http://www.w3.org/2000/svg" xmlns:xlink="http://www.w3.org/1999/xlink" width="512" height="512" viewBox="0 0 512 512">
<g>
</g>
	<path d="M71.045 215.481h39.025v75.776h-39.025v-75.776z" fill="#2B2301" />
	<path d="M419.993 18.401h-328.048c-40.633 0-73.564 32.942-73.564 73.564v328.079c0 40.601 32.932 73.564 73.564 73.564h328.038c40.653 0 73.615-32.962 73.615-73.564v-328.079c0.010-40.612-32.962-73.564-73.605-73.564zM172.319 121.682h35.655v34.693h-35.656v-34.693zM146.576 309.504v18.279h-112.046v-148.849h75.54v-55.214h36.505v185.784zM208.435 325.837h-36.557v-140.862h36.557v140.862zM324.106 389.325h-93.543v-36.536h75.202l-0.45-138.332-38.236-0.327v76.913h38.226v36.485h-74.782v-150.221l111.207 0.881 0.062 18.073 0.604 174.725 0.062 18.34h-18.35zM459.111 390.339h-93.553v-36.536h75.182l-0.45-138.352-38.216-0.286v76.882h38.195v36.495h-74.752v-150.201l111.216 0.901 0.062 18.053 0.584 174.725 0.062 18.34h-18.329z" fill="#2B2301" />
</svg>