<?xml version="1.0" encoding="utf-8"?>
<!DOCTYPE svg PUBLIC "-//W3C//DTD SVG 1.1//EN" "http://www.w3.org/Graphics/SVG/1.1/DTD/svg11.dtd">
<svg version="1.1" xmlns="http://www.w3.org/2000/svg" xmlns:xlink="http://www.w3.org/1999/xlink" x="0px" y="0px" viewBox="0 0 1000 1000" enable-background="new 0 0 1000 1000" xml:space="preserve">
<g><path fill="#2B2301" d="M616.1,657.6c3-3,6.7-4.5,11.2-4.5s8.2,1.5,11.2,4.5c3,3,4.5,6.8,4.5,11.5c0,4.7-1.5,8.5-4.5,11.5c-27.6,27.2-71.9,40.8-132.7,40.8h-1.3c-60.8,0-104.8-13.6-132.1-40.8c-3.4-3-5.1-6.8-5.1-11.5c0-4.7,1.7-8.5,5.1-11.5c3-3,6.7-4.5,11.2-4.5c4.5,0,8.2,1.5,11.2,4.5c20.8,21.7,57.4,32.5,109.7,32.5h1.3C557.6,690.1,594.4,679.3,616.1,657.6z M438.1,517.2c0,15.7-5.5,29.3-16.6,40.8c-11.1,11.5-24.5,17.2-40.2,17.2c-15.7,0-29.1-5.7-40.2-17.2c-11.1-11.5-16.6-25.1-16.6-40.8s5.5-29.1,16.6-40.2c11.1-11.1,24.5-16.6,40.2-16.6c15.7,0,29.1,5.5,40.2,16.6C432.6,488.1,438.1,501.5,438.1,517.2z M784.6,239c-12.3,0-23-4.5-31.9-13.4c-8.9-8.9-13.4-19.6-13.4-31.9c0-12.8,4.5-23.6,13.4-32.5c8.9-8.9,19.6-13.4,31.9-13.4c12.8,0,23.6,4.5,32.5,13.4c8.9,8.9,13.4,19.8,13.4,32.5c0,12.3-4.5,23-13.4,31.9C808.2,234.6,797.3,239,784.6,239z M785.8,10C842,10,890,30,930,70c40,40,60,88.3,60,144.8v570.4c0,56.6-20,104.8-60,144.8c-40,40-88,60-144.2,60H214.2C158,990,110,970,70,930c-40-40-60-88.3-60-144.8V214.8C10,158.2,30,110,70,70c40-40,88-60,144.2-60H785.8z M852.8,528.1c14.9-6,27-15.6,36.4-29c9.4-13.4,14-28.4,14-45c0-21.7-7.7-40.3-23-55.8c-15.3-15.5-33.8-23.3-55.5-23.3c-25.5,0-46.4,10.2-62.5,30.6c-64.2-45.5-144-70-239.3-73.4l53-169.1l131.4,31.3c0.4,21.3,8.2,39.3,23.3,54.2c15.1,14.9,33.1,22.3,53.9,22.3c21.3,0,39.6-7.5,54.9-22.6c15.3-15.1,23-33.3,23-54.6c0-21.3-7.7-39.6-23-54.9c-15.3-15.3-33.6-23-54.9-23c-15.3,0-29.4,4.4-42.1,13.1c-12.8,8.7-22.3,20.1-28.7,34.1l-144.8-34.5c-3.8-0.9-7.5-0.3-11.2,1.6c-3.6,1.9-6.1,5-7.3,9.3l-60.6,192.7c-95.3,1.7-176.3,25.7-243.1,72.1c-15.3-18.3-35.1-27.4-59.3-27.4c-21.7,0-40.2,7.8-55.5,23.3c-15.3,15.5-23,34.1-23,55.8c0,15.7,4.1,30.1,12.4,43.1c8.3,13,19.5,22.6,33.5,29c-3,10.6-4.5,22.1-4.5,34.5c0,41.7,15.7,80.3,47.2,115.8c31.5,35.5,74.3,63.6,128.6,84.2c54.2,20.6,113.5,30.9,177.7,30.9c63.8,0,122.8-10.3,177.1-30.9c54.2-20.6,97.1-48.7,128.6-84.2c31.5-35.5,47.2-74.1,47.2-115.8C856.7,551,855.4,539.6,852.8,528.1L852.8,528.1z M629.5,460.4c15.7,0,29.1,5.5,40.2,16.6c11.1,11.1,16.6,24.5,16.6,40.2s-5.5,29.3-16.6,40.8c-11.1,11.5-24.5,17.2-40.2,17.2c-15.7,0-29.1-5.7-40.2-17.2c-11.1-11.5-16.6-25.1-16.6-40.8s5.5-29.1,16.6-40.2C600.4,466,613.8,460.4,629.5,460.4z"/></g>
</svg>